<svg width="87" height="84" viewBox="0 0 87 84" fill="none" xmlns="http://www.w3.org/2000/svg">
<path d="M67.2913 59.4297L84.726 41.9951C87.3665 39.3545 87.3665 35.0578 84.7258 32.4171C83.7947 31.4859 82.6574 30.8847 81.4597 30.6103C81.8704 29.7273 82.0878 28.7583 82.0878 27.7554C82.0878 25.9464 81.3833 24.2456 80.1043 22.9666C79.1011 21.9632 77.8381 21.3153 76.4672 21.0819C77.239 18.7305 76.6934 16.0375 74.827 14.1713C73.8008 13.1452 72.5245 12.5199 71.1925 12.2914C71.4157 11.6141 71.5334 10.899 71.5334 10.1651C71.5334 8.35602 70.8288 6.65528 69.5498 5.37627C68.2706 4.09725 66.5699 3.39269 64.7609 3.39269C63.6122 3.39269 62.5077 3.67768 61.5264 4.21279L61.353 4.02645C59.0993 1.60462 55.9093 0.21582 52.6015 0.21582H38.4888C37.4964 0.21582 36.6916 1.02064 36.6916 2.01305V4.36984C36.6916 5.31302 36.8512 6.23122 37.1563 7.09462C36.3434 6.75698 35.4638 6.57963 34.5571 6.57963C32.748 6.57963 31.0473 7.28419 29.7681 8.5632C27.9007 10.4305 27.3558 13.1255 28.1293 15.4776C26.7962 15.7056 25.5181 16.3313 24.491 17.3582C23.212 18.6374 22.5074 20.3381 22.5074 22.147C22.5074 22.8794 22.6248 23.5935 22.847 24.2693C21.4778 24.5035 20.216 25.1511 19.2138 26.1535C17.1515 28.2158 16.6999 31.2885 17.8591 33.7931C16.6316 34.0736 15.5043 34.6917 14.5918 35.604C11.9513 38.2445 11.9513 42.5412 14.5918 45.1819L18.1773 48.7672L0.525891 66.4183C-0.175968 67.1201 -0.175968 68.2581 0.525891 68.9601C0.876821 69.3109 1.33682 69.4866 1.79664 69.4866C2.25646 69.4866 2.71646 69.3111 3.06739 68.9601L20.8892 51.1384C21.8981 51.7141 23.0431 52.0221 24.2364 52.0221C26.0453 52.0221 27.746 51.3175 29.0252 50.0383C30.4149 48.6488 31.0722 46.8003 30.9991 44.9762C31.0902 44.9799 31.1813 44.9826 31.2724 44.9826C33.0064 44.9824 34.7413 44.3223 36.0612 43.0023C37.3403 41.7231 38.0448 40.0224 38.0448 38.2134C38.0448 38.122 38.0418 38.0311 38.0382 37.9401C38.1282 37.9437 38.2182 37.9466 38.3084 37.9466C40.0426 37.9466 41.7771 37.2864 43.0973 35.9663C44.3763 34.6871 45.0808 32.9863 45.0808 31.1774C45.0808 31.086 45.0778 30.995 45.0742 30.9041C45.1642 30.9077 45.2542 30.9106 45.3444 30.9106C47.0788 30.9106 48.8131 30.2504 50.1333 28.9302C52.6144 26.4491 52.7637 22.5062 50.5825 19.8485L62.5127 7.91831C63.113 7.31779 63.9108 6.98734 64.7599 6.98734C65.6089 6.98734 66.4069 7.31779 67.0072 7.91831C67.6075 8.51864 67.938 9.31645 67.938 10.1655C67.938 11.0143 67.6075 11.8125 67.007 12.4126L65.2481 14.1716L58.8659 20.5538C58.1641 21.2556 58.1641 22.3936 58.8659 23.0956C59.2169 23.4464 59.6769 23.6221 60.1367 23.6221C60.5965 23.6221 61.0565 23.4465 61.4074 23.0956L67.7896 16.7135C69.0285 15.4743 71.0448 15.4742 72.2841 16.7133C73.5232 17.9526 73.5232 19.9687 72.2841 21.208L70.525 22.9671L65.9019 27.5901C65.2001 28.292 65.2001 29.43 65.9019 30.132C66.2529 30.4827 66.7129 30.6585 67.1727 30.6585C67.6325 30.6585 68.0925 30.4829 68.4435 30.132L73.0665 25.509C73.6668 24.9085 74.4648 24.578 75.3136 24.578C76.1627 24.578 76.9606 24.9085 77.561 25.509C78.1613 26.1093 78.4918 26.9071 78.4918 27.7562C78.4918 28.605 78.1613 29.4032 77.5608 30.0033L75.1463 32.4178L72.9378 34.6263C72.2359 35.3282 72.2359 36.4662 72.9378 37.1682C73.2887 37.5189 73.7487 37.6947 74.2085 37.6947C74.6684 37.6947 75.1284 37.5191 75.4793 37.1682L77.6895 34.958C78.9288 33.7209 80.9438 33.7211 82.1824 34.9597C83.4217 36.1988 83.4217 38.2151 82.1824 39.4544L64.7476 56.8889C60.3697 61.267 54.5513 63.8015 48.3641 64.0261C47.9093 64.0426 47.4773 64.2311 47.1561 64.5538L31.0503 80.7192C30.3497 81.4223 30.3517 82.5603 31.055 83.2609C31.4055 83.6102 31.8645 83.7851 32.3234 83.7851C32.7843 83.7851 33.2455 83.6088 33.5965 83.2562L45.4427 71.3663C48.4518 73.2967 51.9905 74.2145 55.5888 73.9766L64.8603 83.2483C65.2112 83.5991 65.6712 83.7748 66.1311 83.7748C66.5911 83.7748 67.0509 83.5993 67.4018 83.2483C68.1037 82.5465 68.1037 81.4085 67.4018 80.7065L57.5441 70.8477C57.1709 70.4747 56.6524 70.2841 56.1264 70.3272L55.5566 70.3739C52.9265 70.5895 50.3268 70.0135 48.057 68.7414L49.212 67.5823C56.043 67.1609 62.4385 64.2827 67.2913 59.4297ZM26.4837 47.4968C25.8834 48.0973 25.0852 48.4278 24.2366 48.4278C23.3875 48.4278 22.5895 48.0973 21.9894 47.4968L17.1331 42.6408C15.894 41.4016 15.894 39.3854 17.1331 38.1461C17.7335 37.5455 18.5317 37.2151 19.3805 37.2151C20.2293 37.2151 21.0275 37.5455 21.6277 38.1461L26.4839 43.0021C27.7229 44.2412 27.7229 46.2575 26.4837 47.4968ZM33.5201 40.4604C32.2808 41.6996 30.2642 41.6996 29.0254 40.4604L24.1692 35.6042L21.7545 33.1896C20.5154 31.9504 20.5154 29.9342 21.7545 28.695C22.3549 28.0945 23.153 27.7641 24.0017 27.7641C24.8507 27.7641 25.6487 28.0945 26.2489 28.695L33.5196 35.9657C33.5196 35.9657 33.5196 35.9657 33.5197 35.9657C34.1203 36.5662 34.4507 37.3642 34.4507 38.2131C34.4507 39.0619 34.1203 39.8601 33.5201 40.4604ZM40.5561 33.4242C39.3168 34.6632 37.3004 34.6633 36.0614 33.4242L27.0316 24.3944C26.4313 23.7941 26.1008 22.9962 26.1008 22.1472C26.1008 21.2984 26.4313 20.5002 27.0318 19.9C27.6513 19.2805 28.4653 18.9707 29.2789 18.9707C30.0922 18.9707 30.9053 19.2801 31.5247 19.8986L35.6402 24.0142L40.5558 28.9297H40.556C41.1561 29.53 41.4866 30.3279 41.4866 31.1769C41.4869 32.0259 41.1565 32.8241 40.5561 33.4242ZM47.5923 26.388C46.3532 27.6271 44.3369 27.6271 43.0978 26.388L34.068 17.3582C34.0671 17.3573 34.066 17.3564 34.0649 17.3553L32.3088 15.5992C31.0697 14.3599 31.0697 12.3438 32.3088 11.1045C32.9284 10.4848 33.7424 10.175 34.5562 10.175C35.37 10.175 36.184 10.4848 36.8034 11.1045L47.592 21.8931C48.1925 22.4935 48.5229 23.2915 48.5229 24.1403C48.5231 24.9895 48.1929 25.7879 47.5923 26.388ZM48.0649 17.2829L43.1285 12.3465C43.6883 12.466 44.2638 12.5294 44.8496 12.5293C44.8627 12.5293 44.876 12.5293 44.8893 12.5293L49.8214 12.5061C50.8138 12.5014 51.6148 11.693 51.6101 10.7004C51.6055 9.71069 50.8017 8.91162 49.8131 8.91162C49.8102 8.91162 49.8073 8.91162 49.8045 8.91162L44.8724 8.9348C44.8649 8.9348 44.8577 8.9348 44.8501 8.9348C43.6349 8.9348 42.4919 8.46312 41.6301 7.60547C40.763 6.74225 40.2855 5.59333 40.2855 4.36966V3.81011H52.6009C54.9144 3.81011 57.1452 4.78132 58.7215 6.47505L58.7946 6.55358L48.0649 17.2829Z" fill="#FAAC3D"/>
</svg>
