<svg width="92" height="92" viewBox="0 0 92 92" fill="none" xmlns="http://www.w3.org/2000/svg">
<g clip-path="url(#clip0)">
<path d="M29.6847 19.1428C33.2918 19.1428 36.216 16.2186 36.216 12.6114C36.216 9.00426 33.2918 6.08008 29.6847 6.08008C26.0775 6.08008 23.1533 9.00426 23.1533 12.6114C23.1533 16.2186 26.0775 19.1428 29.6847 19.1428Z" fill="#FAAC3D"/>
<path d="M91.433 54.3097L84.0233 44.1302C83.8534 43.8968 83.6503 43.6897 83.4205 43.515L72.5226 35.2395C71.6916 34.6084 70.6351 34.486 69.7222 34.8171C68.9209 34.8956 69.2329 34.8358 61.2253 37.8933C60.2776 38.2551 59.5277 38.9089 59.0368 39.7124L63.687 38.7139L53.6361 43.7777C44.3457 38.4879 44.241 38.2186 42.9932 38.3403C42.4004 37.9083 42.193 37.9176 39.2117 37.1513L32.0749 35.3169L28.3755 24.6878L31.1911 28.892L31.6798 27.6122C32.549 25.3356 31.4083 22.7856 29.1317 21.9163C21.1352 18.863 21.4358 18.9179 20.6306 18.8399C19.8579 18.5606 18.9741 18.5997 18.1974 19.0268L6.11959 25.6719C5.55747 25.9811 5.11105 26.4648 4.84774 27.0498L0.261474 37.2383C-0.409349 38.7286 0.254856 40.4805 1.74511 41.1514C3.23455 41.822 4.98692 41.1586 5.65814 39.6677L9.8387 30.3807L13.5295 28.3498L8.13507 42.8536C8.13507 42.8536 7.75724 46.4907 5.84485 72.5623C5.70527 74.4609 7.13114 76.1132 9.0297 76.2527C9.04554 76.2539 9.06119 76.2535 9.07703 76.2545H3.34606C2.5892 76.2545 1.97573 76.868 1.97573 77.6249V84.5515C1.97573 85.3083 2.5892 85.9218 3.34606 85.9218H31.7875C32.5444 85.9218 33.1579 85.3083 33.1579 84.5515V77.6249C33.1579 76.868 32.5444 76.2545 31.7875 76.2545H26.6562C28.4908 76.1765 29.9554 74.669 29.9554 72.8152V56.5819C29.9554 55.9259 29.7683 55.2838 29.4161 54.7307L24.3582 46.7869L26.0919 42.2463C24.9492 41.2959 24.2745 39.9459 24.1813 39.0563L22.9215 27.0232L27.0066 38.7605C27.3316 39.694 28.1023 40.4063 29.0647 40.6538C41.6381 43.8854 40.8275 43.7444 41.5366 43.6756C41.7649 43.8413 40.8353 43.2996 52.0863 49.7058C52.9557 50.2007 54.0147 50.2138 54.8819 49.777L65.9809 44.1852L60.6195 48.6764L64.8967 59.8782L60.4334 63.4271C59.8456 63.8946 59.4265 64.5411 59.2397 65.2685L55.047 81.6077C54.5739 83.4515 55.6851 85.33 57.5289 85.8031C59.3727 86.2762 61.2512 85.165 61.7243 83.3211L65.6295 68.103L72.7358 62.4526L73.9874 61.9747L72.6869 69.3777C72.5363 70.2354 72.7158 71.1182 73.1895 71.849L81.2855 84.3393C82.3211 85.9373 84.4559 86.3921 86.0526 85.3569C87.6499 84.3215 88.1056 82.1871 87.0702 80.5897L79.7112 69.2363L81.4902 59.1102L77.6939 46.598L79.4944 47.9653L86.6478 57.7928C87.6098 59.1146 89.4607 59.4054 90.7817 58.4437C92.1034 57.4817 92.3948 55.6309 91.433 54.3097ZM26.3606 76.2543H9.44563C11.1635 76.1747 12.591 74.8259 12.7203 73.0677L14.7567 45.3817L15.4622 45.651L23.0612 57.5858V72.8148C23.0614 74.6688 24.526 76.1763 26.3606 76.2543Z" fill="#FAAC3D"/>
<path d="M60.6721 35.1198C64.2793 35.1198 67.2034 32.1956 67.2034 28.5885C67.2034 24.9813 64.2793 22.0571 60.6721 22.0571C57.0649 22.0571 54.1407 24.9813 54.1407 28.5885C54.1407 32.1956 57.0649 35.1198 60.6721 35.1198Z" fill="#FAAC3D"/>
</g>
<defs>
<clipPath id="clip0">
<rect width="92" height="92" fill="white"/>
</clipPath>
</defs>
</svg>
