<svg width="92" height="92" viewBox="0 0 92 92" fill="none" xmlns="http://www.w3.org/2000/svg">
<path d="M46 14.5547C46.9667 14.5547 47.7555 13.7892 47.7951 12.8315C47.7969 12.8081 47.7969 12.783 47.7969 12.7578C47.7969 11.7659 46.9919 10.9609 46 10.9609C45.0081 10.9609 44.2031 11.7659 44.2031 12.7578C44.2031 12.783 44.2031 12.8081 44.2049 12.8315C44.2445 13.7892 45.0333 14.5547 46 14.5547Z" fill="#FAAC3D"/>
<path d="M51.3906 47.7969C57.3465 47.7969 62.1719 42.9724 62.1719 37.0156C62.1719 31.0708 57.3354 26.2344 51.3906 26.2344H35.2188C34.2265 26.2344 33.4219 27.0388 33.4219 28.0312V44.2031H31.625C30.6328 44.2031 29.8281 45.0076 29.8281 46C29.8281 46.9924 30.6328 47.7969 31.625 47.7969H33.4219V54.9844H31.625C30.6328 54.9844 29.8281 55.7888 29.8281 56.7812C29.8281 57.7737 30.6328 58.5781 31.625 58.5781H33.4219V67.5625C33.4219 68.5549 34.2265 69.3594 35.2188 69.3594C36.211 69.3594 37.0156 68.5549 37.0156 67.5625V58.5781H49.5938C50.586 58.5781 51.3906 57.7737 51.3906 56.7812C51.3906 55.7888 50.586 54.9844 49.5938 54.9844H37.0156V47.7969H51.3906ZM37.0156 29.8281H51.3906C55.3538 29.8281 58.5781 33.0524 58.5781 37.0156C58.5781 40.9851 55.361 44.2031 51.3906 44.2031H37.0156V29.8281Z" fill="#FAAC3D"/>
<path d="M46 92C70.7703 92 92 70.7796 92 46C92 21.2676 70.8174 0 46 0C21.2297 0 0 21.2204 0 46C0 70.7679 21.2204 92 46 92ZM46 3.59375C68.5903 3.59375 88.4062 23.4097 88.4062 46C88.4062 68.5903 68.5903 88.4062 46 88.4062C23.4097 88.4062 3.59375 68.5903 3.59375 46C3.59375 23.4097 23.4097 3.59375 46 3.59375Z" fill="#FAAC3D"/>
<path d="M46 81.219C64.7234 81.219 81.2188 64.8496 81.2188 46.0002C81.2188 30.0017 69.2079 15.3869 53.5719 11.6742C52.6062 11.4447 51.6377 12.0416 51.4084 13.0073C51.1793 13.9729 51.7761 14.9414 52.7415 15.1707C66.9275 18.5389 77.625 31.7929 77.625 46.0002C77.625 62.8472 62.847 77.6252 46 77.6252C29.153 77.6252 14.375 62.8472 14.375 46.0002C14.375 31.7929 25.0725 18.5389 39.2585 15.1707C40.2239 14.9414 40.8207 13.9729 40.5916 13.0073C40.3623 12.0414 39.3934 11.4445 38.4281 11.6742C22.8043 15.384 10.7812 29.9888 10.7812 46.0002C10.7812 64.7237 27.1506 81.219 46 81.219Z" fill="#FAAC3D"/>
</svg>
