<svg width="32" height="32" viewBox="0 0 32 32" fill="none" xmlns="http://www.w3.org/2000/svg">
<path d="M31.9847 25.2485C32.0525 25.768 31.8942 26.2196 31.5105 26.6035L27.0049 31.075C26.8017 31.3008 26.5364 31.493 26.2089 31.6509C25.8814 31.809 25.5597 31.9107 25.2436 31.9558C25.221 31.9558 25.1531 31.9616 25.0401 31.9729C24.9274 31.9841 24.7806 31.9899 24.5999 31.9899C24.1707 31.9899 23.4762 31.9165 22.5163 31.7696C21.5565 31.6228 20.3822 31.2614 18.9934 30.6856C17.6042 30.1097 16.0291 29.2457 14.2676 28.0941C12.5061 26.9424 10.6315 25.3614 8.64412 23.3514C7.06323 21.7931 5.75335 20.3025 4.71448 18.8798C3.67562 17.457 2.84 16.1414 2.20765 14.9332C1.57524 13.7249 1.10097 12.6296 0.784797 11.6472C0.46862 10.6648 0.254071 9.81788 0.141151 9.10649C0.0282301 8.39509 -0.0169381 7.83613 0.00564602 7.42962C0.0282301 7.0231 0.0395222 6.79726 0.0395222 6.75209C0.0846903 6.43592 0.186319 6.11409 0.344407 5.78662C0.502496 5.45915 0.694461 5.19379 0.920302 4.99053L5.42583 0.485008C5.74201 0.168831 6.10335 0.0107422 6.50986 0.0107422C6.80346 0.0107422 7.06318 0.0954325 7.28902 0.264813C7.51486 0.434194 7.70682 0.643097 7.86491 0.891522L11.4897 7.76838C11.6929 8.12972 11.7494 8.52494 11.659 8.95404C11.5687 9.38314 11.3767 9.74449 11.0831 10.0381L9.42321 11.698C9.37805 11.7432 9.33852 11.8166 9.30465 11.9182C9.27077 12.0198 9.25383 12.1045 9.25383 12.1723C9.34417 12.6465 9.54743 13.1886 9.8636 13.7983C10.1346 14.3403 10.5524 15.0009 11.117 15.7801C11.6816 16.5592 12.4834 17.4569 13.5222 18.4732C14.5385 19.5122 15.4419 20.3194 16.2323 20.8954C17.0226 21.4711 17.6834 21.8947 18.2141 22.1657C18.7449 22.4367 19.1514 22.6005 19.4336 22.6568L19.857 22.7415C19.9021 22.7415 19.9757 22.7245 20.0772 22.6907C20.1788 22.6568 20.2522 22.6173 20.2975 22.5721L22.2283 20.6073C22.6351 20.246 23.1091 20.0653 23.6512 20.0653C24.0352 20.0653 24.34 20.133 24.5658 20.2686H24.5996L31.1377 24.1304C31.6121 24.4243 31.8943 24.7968 31.9847 25.2485Z" fill="#FAAC3D"/>
</svg>
