<svg width="32" height="32" viewBox="0 0 32 32" fill="none" xmlns="http://www.w3.org/2000/svg">
<path d="M16 0C7.1776 0 0 7.1776 0 16C0 24.8224 7.1776 32 16 32C24.8224 32 32 24.8224 32 16C32 7.1776 24.8224 0 16 0ZM16 28.5955C9.05492 28.5955 3.4042 22.9454 3.4042 16C3.4042 9.05459 9.05492 3.40453 16 3.40453C22.9451 3.40453 28.5958 9.05459 28.5958 16C28.5958 22.9454 22.9451 28.5955 16 28.5955Z" fill="#FAAC3D"/>
<path d="M24.3386 15.5059H17.1481V6.86038C17.1481 6.13284 16.5583 5.54297 15.8307 5.54297C15.1032 5.54297 14.5133 6.13284 14.5133 6.86038V16.8233C14.5133 17.5509 15.1032 18.1407 15.8307 18.1407H24.3386C25.0661 18.1407 25.656 17.5509 25.656 16.8233C25.656 16.0958 25.0661 15.5059 24.3386 15.5059Z" fill="#FAAC3D"/>
</svg>
