<svg width="24" height="32" viewBox="0 0 24 32" fill="none" xmlns="http://www.w3.org/2000/svg">
<path d="M12 0C5.6097 0 0.410828 5.19887 0.410828 11.5891C0.410828 19.5196 10.782 31.1621 11.2236 31.6538C11.6383 32.1157 12.3625 32.1149 12.7765 31.6538C13.218 31.1621 23.5892 19.5196 23.5892 11.5891C23.5891 5.19887 18.3903 0 12 0ZM12 17.4199C8.78489 17.4199 6.16926 14.8042 6.16926 11.5891C6.16926 8.374 8.78495 5.75838 12 5.75838C15.2151 5.75838 17.8307 8.37406 17.8307 11.5892C17.8307 14.8043 15.2151 17.4199 12 17.4199Z" fill="#FAAC3D"/>
</svg>
