<svg width="32" height="32" viewBox="0 0 32 32" fill="none" xmlns="http://www.w3.org/2000/svg">
<path d="M16.0001 17.4877C18.1394 17.4877 23.1694 14.913 23.1694 8.74376C23.1694 7.88323 23.1484 7.05196 23.0775 6.26654C22.9611 4.72079 22.6445 3.35088 21.8562 2.30102C20.8451 0.872328 19.0761 0 16.0001 0C12.9245 0 11.1557 0.871973 10.1446 2.30023C9.35576 3.35035 9.039 4.72061 8.92265 6.26689C8.8518 7.05223 8.83087 7.88341 8.83087 8.74385C8.83078 14.913 13.8607 17.4877 16.0001 17.4877ZM18.3402 3.20332C18.1315 3.73105 18.0268 3.99496 17.8179 4.52259C16.4692 4.14154 15.5308 4.14154 14.1821 4.52259C13.9732 3.99496 13.8686 3.73105 13.6597 3.20332C15.3464 2.69272 16.6537 2.6928 18.3402 3.20332ZM9.89732 7.40614C9.97997 7.58678 10.3309 8.2814 10.874 8.34649C11.4984 8.42142 12.5348 6.13529 16.0001 6.12971C19.4653 6.13529 20.5017 8.42142 21.1261 8.34649C21.6693 8.28131 22.0202 7.58678 22.1028 7.40614C22.1196 7.84882 22.1258 8.297 22.1258 8.74385C22.1258 11.7594 20.7943 13.6278 19.6772 14.6642C18.2698 15.9702 16.7071 16.4441 16.0002 16.4441C15.2932 16.4441 13.7305 15.9702 12.3231 14.6642C11.2059 13.6278 9.87453 11.7594 9.87453 8.74385C9.87444 8.297 9.88056 7.84882 9.89732 7.40614Z" fill="url(#paint0_linear)"/>
<path d="M29.31 26.4549C28.9439 24.1791 28.1905 21.2474 26.6791 20.2056C25.6469 19.4938 22.0458 17.57 20.508 16.7484L20.4821 16.7346C20.3063 16.6407 20.0916 16.6596 19.935 16.7826C19.1294 17.4149 18.2471 17.8411 17.3124 18.0493C17.1473 18.0861 17.0117 18.2034 16.9519 18.3615L16.0001 20.8703L15.0482 18.3615C14.9883 18.2034 14.8528 18.0861 14.6876 18.0493C13.7531 17.8411 12.8707 17.4149 12.0652 16.7826C11.9083 16.6595 11.6938 16.6407 11.518 16.7346C9.9986 17.5465 6.35347 19.5097 5.32569 20.2025C3.58574 21.3746 2.82505 25.6165 2.69017 26.455C2.67687 26.5382 2.68459 26.6232 2.71261 26.7027C2.7495 26.8068 3.32493 28.2973 6.20272 29.4957C6.36864 29.2866 6.58963 29.128 6.83819 29.0388C6.52941 28.9292 6.26143 28.7143 6.09001 28.426C5.83462 27.9962 5.82513 27.457 6.06465 27.0197C6.80245 25.6691 8.21545 24.8288 9.75402 24.8268C11.1851 24.8268 12.4824 25.5379 13.2527 26.6937H18.7442C18.895 26.4686 19.0679 26.2579 19.2619 26.0633C20.0556 25.2673 21.1115 24.8282 22.2352 24.8266H22.2361H22.237C23.7743 24.8266 25.1891 25.6623 25.9295 27.0083C26.1694 27.4451 26.1614 27.9833 25.9075 28.4144C25.737 28.7029 25.4698 28.9185 25.1613 29.0291C25.4143 29.1186 25.6387 29.2796 25.8059 29.4923C28.6763 28.2945 29.2508 26.8068 29.2877 26.7028C29.3157 26.6231 29.3234 26.538 29.31 26.4549Z" fill="url(#paint1_linear)"/>
<path d="M24.6893 30.1889H24.6889L22.0431 30.1926C21.9962 30.0812 21.9061 29.7719 21.9052 29.034C21.904 28.296 21.993 27.9862 22.0398 27.8745L24.6849 27.8706C24.7482 27.8703 24.8065 27.837 24.8385 27.7826C24.8707 27.7281 24.8716 27.6611 24.8413 27.6057C24.3194 26.657 23.3235 26.0679 22.2369 26.0679C21.4446 26.069 20.7004 26.3787 20.1411 26.9397C19.8529 27.2286 19.633 27.567 19.4864 27.9351H12.5103C12.0723 26.843 11.0035 26.0681 9.75399 26.0681C8.67061 26.0696 7.6744 26.6622 7.15412 27.6148C7.1238 27.6701 7.12504 27.7374 7.15723 27.7916C7.18942 27.8458 7.24777 27.8789 7.31082 27.8789H7.31099L9.9568 27.8747C10.0039 27.9861 10.0938 28.2954 10.0947 29.0335C10.0959 29.7716 10.0069 30.0813 9.96008 30.1927L7.31499 30.1967C7.25193 30.1968 7.19358 30.2303 7.16139 30.2845C7.12938 30.3389 7.12832 30.4062 7.15882 30.4615C7.68052 31.4101 8.67673 31.9997 9.75869 31.9997H9.76304C10.5555 31.9985 11.2995 31.6888 11.8589 31.1278C12.1472 30.8387 12.367 30.5002 12.5135 30.1321H19.4894C19.9275 31.2245 20.9956 31.9993 22.2419 31.9995C22.2419 31.9995 22.2459 31.9995 22.2461 31.9995C23.3293 31.998 24.3257 31.4051 24.846 30.4531C24.8763 30.3977 24.8751 30.3303 24.8429 30.2762C24.8107 30.222 24.7523 30.1889 24.6893 30.1889Z" fill="url(#paint2_linear)"/>
<defs>
<linearGradient id="paint0_linear" x1="16.0001" y1="0" x2="16.0001" y2="17.4877" gradientUnits="userSpaceOnUse">
<stop stop-color="#FAAC3D"/>
<stop offset="1" stop-color="#F7CD47"/>
</linearGradient>
<linearGradient id="paint1_linear" x1="16.0001" y1="16.6753" x2="16.0001" y2="29.4957" gradientUnits="userSpaceOnUse">
<stop stop-color="#FAAC3D"/>
<stop offset="1" stop-color="#F7CD47"/>
</linearGradient>
<linearGradient id="paint2_linear" x1="16" y1="26.0679" x2="16" y2="31.9997" gradientUnits="userSpaceOnUse">
<stop stop-color="#FAAC3D"/>
<stop offset="1" stop-color="#F7CD47"/>
</linearGradient>
</defs>
</svg>
