<svg width="32" height="18" viewBox="0 0 32 18" fill="none" xmlns="http://www.w3.org/2000/svg">
<path d="M11.8569 12.6259C10.3799 12.6259 9.1862 13.8238 9.1862 15.3009C9.1862 16.7736 10.3799 17.9716 11.8569 17.9716C13.334 17.9716 14.5277 16.7736 14.5277 15.3009C14.5276 13.8238 13.334 12.6259 11.8569 12.6259ZM11.8569 16.6363C11.1184 16.6363 10.5215 16.0351 10.5215 15.3008C10.5215 14.5623 11.1184 13.9654 11.8569 13.9654C12.5955 13.9654 13.1923 14.5623 13.1923 15.3008C13.1923 16.0351 12.5955 16.6363 11.8569 16.6363ZM32 10.65V13.5018C32 14.2132 31.4233 14.7899 30.7118 14.7899H29.3335C29.0845 13.0809 27.6118 11.7671 25.8341 11.7671C24.0608 11.7671 22.588 13.081 22.3389 14.7899H15.3529C15.1039 13.0809 13.6311 11.7671 11.8578 11.7671C10.0844 11.7671 8.61166 13.081 8.36267 14.7899H6.63655C5.92512 14.7899 5.34844 14.2132 5.34844 13.5018V10.65H32ZM25.8375 12.6259C24.3605 12.6259 23.1625 13.8238 23.1625 15.3009C23.1625 16.7736 24.3605 17.9716 25.8375 17.9716C27.3103 17.9716 28.5082 16.7736 28.5082 15.3009C28.5082 13.8238 27.3103 12.6259 25.8375 12.6259ZM25.8375 16.6363C25.099 16.6363 24.5022 16.0351 24.5022 15.3008C24.5022 14.5623 25.099 13.9654 25.8375 13.9654C26.5718 13.9654 27.1729 14.5623 27.1729 15.3008C27.1729 16.0351 26.5718 16.6363 25.8375 16.6363ZM31.4924 7.77815L26.4301 2.77157C26.1081 2.45381 25.6744 2.27348 25.2235 2.27348H22.6688V1.31593C22.6688 0.603203 22.0934 0.027832 21.3807 0.027832H6.63566C5.92716 0.027832 5.34756 0.603256 5.34756 1.31593V1.51776L0.120261 2.12022L9.3828 3.32639L0 4.25847L9.34975 5.58777L0 6.39844L5.34787 7.40706L5.3475 9.93793H31.9991V8.99754C31.9991 8.53809 31.8145 8.10018 31.4924 7.77815ZM29.2854 7.94557H24.3862C24.2746 7.94557 24.1844 7.85543 24.1844 7.74379V3.96095C24.1844 3.84932 24.2746 3.75912 24.3862 3.75912H25.318C25.3695 3.75912 25.4211 3.78061 25.4597 3.81496L29.4229 7.59781C29.5559 7.7223 29.4657 7.94557 29.2854 7.94557Z" fill="#FAAC3D"/>
</svg>
