<svg width="32" height="32" viewBox="0 0 32 32" fill="none" xmlns="http://www.w3.org/2000/svg">
<path d="M13.487 17.5727C13.487 18.4801 12.7514 19.2158 11.8439 19.2158C10.9365 19.2158 10.2009 18.4802 10.2009 17.5727C10.2009 16.6653 10.9365 15.9297 11.8439 15.9297C12.7514 15.9297 13.487 16.6653 13.487 17.5727ZM20.1561 15.9297C19.2487 15.9297 18.513 16.6653 18.513 17.5728C18.513 18.4802 19.2487 19.2158 20.1561 19.2158C21.0635 19.2158 21.7992 18.4802 21.7992 17.5728C21.7991 16.6653 21.0635 15.9297 20.1561 15.9297ZM32 16.6569V19.7794C32 21.3471 30.7291 22.618 29.1614 22.618H27.1016C25.0605 28.2851 19.8486 31.7081 16 31.7081C12.1514 31.7081 6.93945 28.2851 4.89841 22.6179H2.83859C1.27085 22.6179 0 21.3471 0 19.7794V16.6568C0 15.5781 0.601882 14.6399 1.4881 14.1597C1.51786 9.72647 2.80993 6.26414 5.33401 3.87057C7.83765 1.4964 11.4262 0.29248 16 0.29248C20.5738 0.29248 24.1624 1.4964 26.666 3.87052C29.19 6.26409 30.482 9.72647 30.5119 14.1596C31.3981 14.6399 32 15.5781 32 16.6569ZM25.9921 17.5831C25.9921 16.8527 25.9547 16.1664 25.8995 15.5014C24.6397 14.3488 22.3527 13.4743 19.4664 13.1493C19.8454 13.5755 20.1728 14.136 20.3713 14.8739C18.6033 13.4811 15.1331 13.8126 12.5082 10.6959C12.3577 10.5218 12.2276 10.3555 12.115 10.2035C12.1137 10.2017 12.1123 10.2002 12.111 10.1985L12.1113 10.1986C11.6443 9.56704 11.4851 9.19141 11.4762 9.6072C11.3992 13.1896 8.86003 15.9824 6.04047 16.3763C6.02264 16.7703 6.00805 17.1681 6.00805 17.5831C6.00805 19.0973 6.25532 20.4774 6.67571 21.721C8.2595 23.6315 10.875 24.1709 13.19 24.314C13.6198 23.6303 14.584 23.1529 15.7069 23.1529C17.2294 23.1529 18.4635 24.0289 18.4635 25.1097C18.4635 26.1904 17.2293 27.0664 15.7069 27.0664C14.5358 27.0664 13.5379 26.5472 13.1385 25.8161C11.5205 25.7221 9.74191 25.4463 8.15671 24.6977C10.3859 27.9836 13.8418 29.7211 16 29.7211C19.3913 29.7211 25.9921 25.4369 25.9921 17.5831ZM28.8029 13.8183C28.6222 6.08228 24.2066 1.9957 16 1.9957C7.79341 1.9957 3.37783 6.08228 3.19712 13.8183H4.28925C4.68858 11.2109 5.53255 9.06649 6.81396 7.41766C8.85595 4.79031 11.9466 3.45808 16 3.45808C20.0534 3.45808 23.1441 4.79031 25.1861 7.41766C26.4675 9.06644 27.3115 11.2109 27.7108 13.8183H28.8029Z" fill="url(#paint0_linear)"/>
<defs>
<linearGradient id="paint0_linear" x1="16" y1="0.29248" x2="16" y2="31.7081" gradientUnits="userSpaceOnUse">
<stop stop-color="#F7CD47"/>
<stop offset="1" stop-color="#FAAC3D"/>
</linearGradient>
</defs>
</svg>
