<svg width="32" height="26" viewBox="0 0 32 26" fill="none" xmlns="http://www.w3.org/2000/svg">
<path d="M26.9963 14.648L31.9235 24.7698C32.1239 25.1815 31.9133 25.5183 31.4555 25.5183H0.543318C0.0854878 25.5183 -0.125179 25.1815 0.0752394 24.7698L5.00251 14.648C5.08088 14.487 5.29155 14.3552 5.47058 14.3552H9.69547C9.82567 14.3552 10.0015 14.4367 10.0867 14.5352C10.3734 14.8664 10.6654 15.19 10.9565 15.5103C11.233 15.8144 11.5109 16.1224 11.7867 16.4377H6.77281C6.59372 16.4377 6.38305 16.5694 6.30473 16.7304L3.04062 23.4359H28.958L25.6942 16.7304C25.6158 16.5694 25.4052 16.4377 25.226 16.4377H20.2008C20.4765 16.1224 20.7546 15.8144 21.031 15.5103C21.3231 15.1891 21.6167 14.8661 21.904 14.5348C21.9891 14.4366 22.1646 14.3552 22.2946 14.3552H26.5284C26.7073 14.3552 26.9179 14.4869 26.9963 14.648ZM23.2434 7.73073C23.2434 13.2615 18.639 14.2988 16.4736 19.6139C16.2977 20.0458 15.6896 20.0436 15.5136 19.6118C13.5602 14.8196 9.62405 13.5054 8.87095 9.23624C8.12946 5.03342 11.0394 0.916503 15.2881 0.514883C19.6092 0.106412 23.2434 3.49418 23.2434 7.73073ZM19.8224 7.73073C19.8224 5.61643 18.1084 3.90244 15.9941 3.90244C13.8797 3.90244 12.1658 5.61643 12.1658 7.73073C12.1658 9.84508 13.8797 11.559 15.9941 11.559C18.1084 11.559 19.8224 9.84508 19.8224 7.73073Z" fill="#FAAC3D"/>
</svg>
