<svg width="32" height="32" viewBox="0 0 32 32" fill="none" xmlns="http://www.w3.org/2000/svg">
<g clip-path="url(#clip0)">
<path d="M16.9312 18.3509L16.018 8.30549C16.0129 8.25038 15.9188 8.25038 15.9145 8.30549L15.0011 18.3509C15.3022 18.2374 15.6253 18.167 15.9661 18.167C16.307 18.167 16.6301 18.2374 16.9312 18.3509Z" fill="#FAAC3D"/>
<path d="M15.9661 24.2228C18.748 24.2228 21.2842 23.178 23.2248 21.4702H8.7075C10.648 23.178 13.1845 24.2228 15.9661 24.2228Z" fill="#FAAC3D"/>
<path d="M14.4159 20.3691H17.5158C17.2879 19.7299 16.6822 19.2681 15.9656 19.2681C15.249 19.2681 14.6439 19.7299 14.4159 20.3691Z" fill="#FAAC3D"/>
<path d="M7.6159 20.3691H13.2692C13.3568 19.9399 13.5533 19.5544 13.816 19.2224L14.8178 8.20531C14.8718 7.60748 15.3656 7.15669 15.9661 7.15669C16.5667 7.15669 17.0605 7.60748 17.1145 8.20531L18.1158 19.2219C18.3784 19.5538 18.5752 19.9393 18.6626 20.3686H24.3159C24.9484 19.6315 25.4803 18.8095 25.9018 17.9233L24.4013 17.3018L24.8228 16.2843L26.3247 16.9064C26.6792 15.915 26.8935 14.8607 26.9486 13.7618H24.2239V12.6608H26.9486C26.894 11.5625 26.6798 10.5077 26.3247 9.51629L24.8228 10.1383L24.4013 9.12087L25.9018 8.49939C25.4373 7.52388 24.8355 6.62929 24.1183 5.83658L22.1942 7.76124L21.4157 6.98277L23.3398 5.05811C22.5476 4.34066 21.653 3.73907 20.6775 3.27457L20.0561 4.77505L19.0386 4.35356L19.6606 2.85173C18.6698 2.49879 17.615 2.28455 16.5167 2.22998V4.95462H15.4156V2.22998C14.3173 2.28455 13.2625 2.49879 12.2711 2.85388L12.8931 4.35571L11.8757 4.77747L11.2542 3.27672C10.2787 3.74122 9.38412 4.34308 8.59194 5.06026L10.5161 6.98492L9.7376 7.76339L7.81347 5.83873C7.09629 6.6309 6.49389 7.52604 6.02993 8.50154L7.53069 9.12302L7.10893 10.1405L5.6071 9.51844C5.25254 10.5098 5.0383 11.5641 4.98319 12.663H7.70837V13.764H4.98373C5.0383 14.8623 5.25254 15.9171 5.60763 16.9085L7.10946 16.2865L7.53122 17.3039L6.03047 17.9254C6.45142 18.8101 6.98339 19.6321 7.6159 20.3691Z" fill="#FAAC3D"/>
<path d="M15.9661 26.4249C23.2511 26.4249 29.1786 20.4974 29.1786 13.2124C29.1786 5.92748 23.2511 0 15.9661 0C8.68116 0 2.75368 5.92748 2.75368 13.2124C2.75368 20.4974 8.68116 26.4249 15.9661 26.4249ZM15.9661 1.10104C22.6444 1.10104 28.0775 6.53418 28.0775 13.2124C28.0775 19.8907 22.6444 25.3239 15.9661 25.3239C9.28786 25.3239 3.85471 19.8907 3.85471 13.2124C3.85471 6.53418 9.28786 1.10104 15.9661 1.10104Z" fill="#FAAC3D"/>
<path d="M29.7291 19.2681V30.829H27.527V24.2227H25.3249V30.829H23.1229V26.9753H20.9208V30.829H18.7187V29.1774H16.5166V30.829H15.4156V31.93H31.9312V19.2681H29.7291Z" fill="#FAAC3D"/>
<path d="M7.89839 29.658L6.45382 25.3237H0.00108337V26.4248H5.65976L7.5183 31.9998L9.63516 29.1774H13.2135V28.0763H9.08464L7.89839 29.658Z" fill="#FAAC3D"/>
<path d="M2.20316 28.627H3.30423V29.728H2.20316V28.627Z" fill="#FAAC3D"/>
<path d="M0.00108337 28.627H1.10216V29.728H0.00108337V28.627Z" fill="#FAAC3D"/>
<path d="M4.40524 28.627H5.50631V29.728H4.40524V28.627Z" fill="#FAAC3D"/>
</g>
<defs>
<clipPath id="clip0">
<rect width="32" height="32" fill="white"/>
</clipPath>
</defs>
</svg>
