<svg width="32" height="32" viewBox="0 0 32 32" fill="none" xmlns="http://www.w3.org/2000/svg">
<path d="M18.8125 10.375H15.0625V14.125H18.8125C19.8438 14.125 20.6875 13.2812 20.6875 12.25C20.6875 11.2188 19.8438 10.375 18.8125 10.375Z" fill="#F7CD47"/>
<path d="M16 0C7.2063 0 0 7.2063 0 16C0 24.7937 7.2063 32 16 32C24.7937 32 32 24.7937 32 16C32 7.2063 24.7937 0 16 0ZM25.9719 25.9719C23.2937 28.6501 19.7522 30.125 16 30.125C12.2478 30.125 8.7063 28.6501 6.02808 25.9719C3.34985 23.2937 1.875 19.7522 1.875 16C1.875 12.2478 3.34985 8.7063 6.02808 6.02808C8.7063 3.34985 12.2478 1.875 16 1.875C19.7522 1.875 23.2937 3.34985 25.9719 6.02808C28.6501 8.7063 30.125 12.2478 30.125 16C30.125 19.7522 28.6501 23.2937 25.9719 25.9719Z" fill="#F7CD47"/>
<path d="M24.646 7.354C22.322 5.03003 19.2515 3.75 16 3.75C12.7485 3.75 9.67798 5.03003 7.354 7.354C5.03003 9.67798 3.75 12.7485 3.75 16C3.75 19.2515 5.03003 22.322 7.354 24.646C9.67798 26.97 12.7485 28.25 16 28.25C19.2515 28.25 22.322 26.97 24.646 24.646C26.9702 22.322 28.25 19.2515 28.25 16C28.25 12.7485 26.9702 9.67798 24.646 7.354ZM18.8125 16H15.0625V17.875H19.75V19.75H15.0625V23.5H13.1875V19.75H11.3125V17.875H13.1875V16H11.3125V14.125H13.1875V8.5H18.8125C20.875 8.5 22.5625 10.1875 22.5625 12.25C22.5625 14.3125 20.875 16 18.8125 16Z" fill="#F7CD47"/>
</svg>
