<svg width="32" height="32" viewBox="0 0 32 32" fill="none" xmlns="http://www.w3.org/2000/svg">
<path d="M10.7844 24.494C10.7763 24.454 10.7644 24.4146 10.7487 24.3765C10.7331 24.339 10.7137 24.3028 10.6912 24.269C10.6687 24.2346 10.6425 24.2028 10.6138 24.174C10.585 24.1453 10.5531 24.119 10.5188 24.0965C10.485 24.074 10.4488 24.0546 10.4106 24.039C10.3731 24.0234 10.3337 24.0109 10.2937 24.0034C10.2131 23.9871 10.13 23.9871 10.05 24.0034C10.01 24.0109 9.97062 24.0234 9.9325 24.039C9.895 24.0546 9.85875 24.074 9.825 24.0965C9.79062 24.119 9.75875 24.1453 9.73 24.174C9.70125 24.2028 9.675 24.2346 9.6525 24.269C9.62938 24.3028 9.61063 24.339 9.595 24.3765C9.57938 24.4146 9.56687 24.454 9.55937 24.494C9.55125 24.534 9.54688 24.5753 9.54688 24.6159C9.54688 24.6565 9.55125 24.6978 9.55937 24.7378C9.56687 24.7778 9.57938 24.8171 9.595 24.8546C9.61063 24.8928 9.62938 24.929 9.6525 24.9628C9.675 24.9971 9.70125 25.029 9.73 25.0578C9.75875 25.0865 9.79062 25.1128 9.825 25.1353C9.85875 25.1578 9.895 25.1772 9.9325 25.1928C9.97062 25.2085 10.01 25.221 10.05 25.2285C10.09 25.2366 10.1313 25.241 10.1719 25.241C10.2125 25.241 10.2537 25.2366 10.2937 25.2285C10.3337 25.221 10.3731 25.2085 10.4106 25.1928C10.4488 25.1772 10.485 25.1578 10.5188 25.1353C10.5531 25.1128 10.585 25.0865 10.6138 25.0578C10.6425 25.029 10.6687 24.9971 10.6912 24.9628C10.7137 24.929 10.7331 24.8928 10.7487 24.8546C10.7644 24.8171 10.7763 24.7778 10.7844 24.7378C10.7925 24.6978 10.7969 24.6565 10.7969 24.6159C10.7969 24.5753 10.7925 24.534 10.7844 24.494Z" fill="#FAAC3D"/>
<path d="M28.7496 24.6864C28.7471 24.6801 28.7446 24.6739 28.742 24.6678C28.1667 23.3217 26.8176 22.8242 25.221 23.3696L20.8668 24.5737C20.615 23.8113 19.9871 23.1626 19.0992 22.8331C19.0937 22.8311 19.0882 22.8291 19.0826 22.8272L14.2963 21.2027C13.8979 20.6877 12.6501 19.3701 10.3136 19.3701C8.68081 19.3701 7.23637 20.4902 6.41 21.7112H0.625C0.279813 21.7112 0 21.991 0 22.3362V30.216C0 30.5612 0.279813 30.841 0.625 30.841H4.34106C4.68625 30.841 4.96606 30.5612 4.96606 30.216V29.6764H6.70875C7.05394 29.6764 7.33375 29.3966 7.33375 29.0514V28.8715C8.34962 28.9601 8.68375 29.1528 9.61675 29.6908C10.3342 30.1046 11.4187 30.7299 13.3716 31.6079C13.3806 31.612 13.3898 31.6159 13.399 31.6195C13.7738 31.7669 14.5065 31.9986 15.4098 31.9986C16.0386 31.9986 16.7501 31.8862 17.4805 31.5552L27.1049 28.1092C27.1221 28.1031 27.1389 28.0962 27.1554 28.0886C28.0753 27.6654 29.4459 26.4727 28.7496 24.6864ZM3.71606 29.5909H1.25V22.9611H3.71606V29.5909ZM6.08375 28.4263H4.96606V22.9611H6.08375V28.4263ZM26.656 26.9421L17.0359 30.3866C17.0274 30.3896 17.016 30.3941 17.0077 30.3974C16.9992 30.4009 16.9908 30.4045 16.9825 30.4083C15.6427 31.0241 14.3691 30.6554 13.87 30.4614C11.9836 29.6126 10.9768 29.032 10.2412 28.6078C9.21844 28.0181 8.72563 27.7338 7.33375 27.6189V22.585C7.92619 21.614 9.07506 20.6201 10.3137 20.6201C12.4378 20.6201 13.3379 22.0016 13.3733 22.0574C13.4496 22.1815 13.5669 22.2751 13.7048 22.3219L18.672 24.0077C19.4653 24.3055 19.8846 24.9849 19.6919 25.6624C19.6029 25.9752 19.3974 26.2347 19.1133 26.3931C18.8316 26.55 18.506 26.5888 18.1956 26.5029L12.5961 24.7284C12.2668 24.6241 11.9157 24.8064 11.8114 25.1354C11.7071 25.4645 11.8894 25.8157 12.2184 25.9201L17.8277 27.6976C17.8337 27.6995 17.8396 27.7013 17.8456 27.703C18.0696 27.7667 18.2976 27.7982 18.5242 27.7982C18.9391 27.7982 19.3494 27.6925 19.7218 27.485C20.2976 27.1642 20.7139 26.6383 20.8942 26.0042C20.9086 25.9536 20.9213 25.903 20.9324 25.8524L25.6251 24.5524C26.3028 24.3209 27.1925 24.2374 27.5886 25.1497C27.9986 26.2208 26.933 26.81 26.656 26.9421Z" fill="#FAAC3D"/>
<path d="M22.4412 8.22156C22.4331 8.18156 22.4213 8.14219 22.405 8.10406C22.3894 8.06656 22.3706 8.03031 22.3475 7.99656C22.325 7.96219 22.2988 7.93031 22.27 7.90156C22.2413 7.87281 22.2094 7.84656 22.175 7.82406C22.1412 7.80156 22.105 7.78219 22.0675 7.76656C22.0294 7.75094 21.99 7.73844 21.9506 7.73094C21.87 7.71469 21.7869 7.71469 21.7062 7.73094C21.6662 7.73844 21.6269 7.75094 21.5894 7.76656C21.5512 7.78219 21.515 7.80156 21.4813 7.82406C21.4469 7.84656 21.415 7.87281 21.3862 7.90156C21.3575 7.93031 21.3313 7.96219 21.3088 7.99656C21.2863 8.03031 21.2669 8.06656 21.2512 8.10406C21.2356 8.14219 21.2231 8.18156 21.2156 8.22156C21.2075 8.26156 21.2031 8.30281 21.2031 8.34344C21.2031 8.38406 21.2075 8.42531 21.2156 8.46531C21.2231 8.50531 21.2356 8.54469 21.2512 8.58219C21.2669 8.62031 21.2863 8.65656 21.3088 8.69031C21.3313 8.72469 21.3575 8.75656 21.3862 8.78531C21.415 8.81406 21.4469 8.84031 21.4813 8.86281C21.515 8.88531 21.5512 8.90469 21.5894 8.92031C21.6269 8.93594 21.6662 8.94781 21.7062 8.95594C21.7462 8.96406 21.7875 8.96844 21.8281 8.96844C21.8687 8.96844 21.91 8.96406 21.9506 8.95594C21.99 8.94781 22.0294 8.93594 22.0675 8.92031C22.105 8.90469 22.1412 8.88531 22.175 8.86281C22.2094 8.84031 22.2413 8.81406 22.27 8.78531C22.2988 8.75656 22.325 8.72469 22.3475 8.69031C22.3706 8.65656 22.3894 8.62031 22.405 8.58219C22.4213 8.54469 22.4331 8.50531 22.4412 8.46531C22.4494 8.42531 22.4531 8.38406 22.4531 8.34344C22.4531 8.30281 22.4494 8.26156 22.4412 8.22156Z" fill="#FAAC3D"/>
<path d="M31.375 2.1182H27.6589C27.3137 2.1182 27.0339 2.39801 27.0339 2.7432V3.28282H25.2912C24.946 3.28282 24.6662 3.56264 24.6662 3.90782V4.0877C23.6504 3.99901 23.3162 3.80639 22.3833 3.26839C21.6658 2.85464 20.5814 2.22932 18.6284 1.35126C18.6194 1.34714 18.6102 1.34332 18.6009 1.3397C17.9652 1.08957 16.2992 0.597449 14.5197 1.40389L12.0047 2.30439L9.88479 0.184512C9.64073 -0.0595508 9.24498 -0.0595508 9.00092 0.184512L2.04104 7.14432C1.81592 7.36951 1.77273 7.75995 2.04104 8.02826L13.934 19.9212C14.1243 20.1116 14.5699 20.1691 14.8179 19.9212L21.172 13.5672C21.3372 13.5814 21.5086 13.5891 21.6863 13.5891C23.3192 13.5891 24.7635 12.469 25.5899 11.2481H31.375C31.7202 11.2481 32 10.9683 32 10.6231V2.7432C32 2.39801 31.7202 2.1182 31.375 2.1182ZM9.44279 1.51032L10.8673 2.93482C10.4439 3.1967 9.95429 3.33682 9.44279 3.33682C8.93123 3.33682 8.44173 3.19676 8.01829 2.93482L9.44279 1.51032ZM4.79142 9.01082L3.36692 7.58626L4.79142 6.16176C5.05329 6.5852 5.19342 7.07476 5.19342 7.58626C5.19342 8.09776 5.05336 8.58732 4.79142 9.01082ZM14.376 18.5953L12.9517 17.1711C13.8213 16.6344 14.9305 16.6344 15.8002 17.1711L14.376 18.5953ZM16.7007 16.2707C15.3195 15.2688 13.4324 15.2688 12.0513 16.2707L5.69186 9.9112C6.17992 9.23995 6.44342 8.43364 6.44342 7.58626C6.44342 6.73882 6.17998 5.93257 5.69186 5.26132L7.11792 3.83532C7.78917 4.32339 8.59542 4.58689 9.44286 4.58689C10.2903 4.58689 11.0965 4.32339 11.7678 3.83532L13.1196 5.18714C12.8279 5.2302 12.5435 5.32632 12.2782 5.47414C11.8302 5.72376 11.4787 6.09757 11.2599 6.54982C10.5549 6.68039 9.90217 7.0217 9.39017 7.53364C8.00111 8.92276 8.00111 11.1829 9.39023 12.5721C10.0847 13.2666 10.997 13.6139 11.9094 13.6139C12.8217 13.6139 13.7341 13.2666 14.4287 12.5721C14.8805 12.1202 15.1971 11.5648 15.3557 10.9596L17.4659 11.6758C17.2284 12.7763 17.4717 13.934 18.128 14.8434L16.7007 16.2707ZM12.9008 10.1261C12.9063 10.1281 12.9118 10.1301 12.9174 10.132L14.1671 10.5562C14.0727 10.9821 13.8592 11.3738 13.5448 11.6882C12.643 12.5898 11.1758 12.5899 10.2742 11.6882C9.37242 10.7865 9.37242 9.31932 10.2742 8.41757C10.4917 8.19995 10.7484 8.02989 11.028 7.91457C11.1434 8.8747 11.8347 9.73051 12.9008 10.1261ZM19.0285 13.9428C18.7873 13.5496 18.6508 13.1009 18.6292 12.643C18.9286 12.8594 19.2945 13.0715 19.7315 13.2398L19.0285 13.9428ZM24.6662 10.3739C24.0738 11.3451 22.9249 12.339 21.6863 12.339C21.4545 12.339 21.2374 12.3225 21.0343 12.2931C21.0335 12.293 21.0327 12.2929 21.0319 12.2928C19.6821 12.0967 18.956 11.3296 18.7167 11.0258C18.704 11.0071 18.6497 10.936 18.6416 10.9242C18.5688 10.7941 18.4494 10.6894 18.2972 10.6378L13.3279 8.9512C12.5349 8.65357 12.1157 7.97451 12.3079 7.29726C12.308 7.29682 12.3081 7.29639 12.3082 7.29595C12.3084 7.29545 12.3085 7.29489 12.3087 7.29439C12.398 6.98251 12.6031 6.72382 12.8866 6.56589C13.1682 6.40895 13.4938 6.37001 13.8043 6.45607L19.4039 8.23051C19.733 8.33495 20.0842 8.15257 20.1885 7.82351C20.2927 7.49445 20.1105 7.1432 19.7815 7.03889L15.328 5.62764L15.2892 5.58876C15.2888 5.58839 15.2884 5.58795 15.288 5.58757L12.9824 3.28195L14.9641 2.57232C14.9708 2.56989 14.979 2.56682 14.9857 2.56414C14.9874 2.56345 14.9906 2.5622 14.9922 2.56151C15.0007 2.55807 15.0091 2.55445 15.0174 2.55064C16.3572 1.93489 17.6307 2.30345 18.1299 2.49757C20.0163 3.34639 21.0232 3.92695 21.7588 4.35114C22.7815 4.94095 23.2744 5.22514 24.6662 5.34007V10.3739ZM27.0339 9.99801H25.9162V4.53282H27.0339V9.99801ZM30.75 9.99801H28.2839V3.3682H30.75V9.99801Z" fill="#FAAC3D"/>
</svg>
