<svg width="32" height="32" viewBox="0 0 32 32" fill="none" xmlns="http://www.w3.org/2000/svg">
<g clip-path="url(#clip0)">
<path d="M31.8992 14.2227C31.8487 13.773 31.3241 13.4346 30.8705 13.4346C29.4044 13.4346 28.1032 12.5741 27.5576 11.2422C27.0006 9.87842 27.36 8.2882 28.4523 7.28613C28.7963 6.97157 28.8382 6.44486 28.5498 6.07924C27.7992 5.1263 26.9465 4.26538 26.0151 3.51933C25.6507 3.22705 25.1153 3.26774 24.7991 3.61772C23.8454 4.6739 22.1323 5.06637 20.8085 4.51406C19.4314 3.93463 18.5622 2.53871 18.6476 1.04037C18.6757 0.569437 18.3314 0.160222 17.8621 0.105558C16.6668 -0.0328302 15.461 -0.0368434 14.2623 0.096148C13.799 0.147352 13.455 0.54688 13.4703 1.01187C13.5222 2.49553 12.6432 3.86682 11.2794 4.4255C9.97144 4.95981 8.27023 4.57025 7.31853 3.52334C7.00398 3.17848 6.47796 3.13613 6.11109 3.42218C5.15234 4.1746 4.28035 5.03607 3.52281 5.98126C3.22763 6.34868 3.27122 6.8812 3.61816 7.19687C4.73205 8.20558 5.09117 9.8095 4.51285 11.1892C3.96068 12.5046 2.59492 13.352 1.03154 13.352C0.524211 13.3356 0.163155 13.6765 0.107108 14.1379C-0.0334952 15.3395 -0.0350174 16.5645 0.100327 17.776C0.150838 18.2277 0.690969 18.5631 1.14959 18.5631C2.54316 18.5277 3.88027 19.3899 4.44199 20.7553C5.00094 22.1192 4.64113 23.7087 3.54703 24.7122C3.2048 25.0267 3.16107 25.5522 3.45002 25.9174C4.19303 26.8644 5.04661 27.7258 5.98073 28.4783C6.34746 28.7736 6.88081 28.7322 7.19869 28.3818C8.15606 27.3231 9.8689 26.9314 11.1873 27.4848C12.5684 28.0627 13.4372 29.4585 13.3524 30.9572C13.3246 31.4281 13.6697 31.8386 14.1374 31.892C14.749 31.9636 15.3639 31.999 15.9807 31.999C16.5661 31.999 17.1516 31.967 17.7371 31.9019C18.201 31.8506 18.5445 31.4507 18.5288 30.9856C18.4753 29.5026 19.3563 28.1312 20.7184 27.5736C22.035 27.0358 23.7286 27.4294 24.6809 28.4748C24.9971 28.819 25.5199 28.8608 25.8883 28.5758C26.8454 27.8253 27.7158 26.9643 28.4766 26.0166C28.7721 25.6499 28.7301 25.1167 28.3813 24.8004C27.2677 23.7924 26.9066 22.1878 27.4849 20.8095C28.0285 19.5118 29.3435 18.6405 30.7578 18.6405L30.9557 18.6458C31.4149 18.683 31.8368 18.3294 31.8923 17.861C32.0336 16.6582 32.0351 15.4346 31.8992 14.2227ZM15.9999 25.2232C10.9054 25.2232 6.77578 21.0936 6.77578 15.9992C6.77578 10.9048 10.9056 6.7752 15.9999 6.7752C21.0943 6.7752 25.2241 10.9048 25.2241 15.9992C25.2241 17.7284 24.7473 19.3457 23.9193 20.7288L19.8803 16.6896C20.1728 16.0002 20.3272 15.2527 20.3271 14.4814C20.3271 12.9709 19.7388 11.5508 18.6705 10.4829C17.6026 9.41496 16.1826 8.82681 14.6724 8.82681C14.1684 8.82681 13.6667 8.89378 13.1814 9.02595C12.9688 9.08393 12.795 9.25913 12.7384 9.47211C12.6805 9.68993 12.7457 9.91316 12.9159 10.0835C12.9159 10.0835 14.91 12.0929 15.5771 12.7599C15.647 12.8298 15.6469 12.9966 15.6371 13.0567L15.6308 13.1005C15.5636 13.834 15.4339 14.7144 15.3269 15.0528C15.3125 15.067 15.299 15.0791 15.2843 15.0937C15.269 15.1091 15.2548 15.1239 15.24 15.1391C14.8972 15.2491 14.0033 15.3803 13.2582 15.447L13.2583 15.443L13.2248 15.4515C13.2189 15.4522 13.2078 15.453 13.1931 15.453C13.1126 15.453 12.9941 15.4304 12.8865 15.3229C12.192 14.6285 10.2762 12.7263 10.2762 12.7263C10.1043 12.555 9.92799 12.519 9.8105 12.519C9.53663 12.519 9.2914 12.7169 9.21418 13.0007C8.68678 14.9524 9.24587 17.0518 10.6736 18.4797C11.7418 19.5478 13.162 20.1359 14.6725 20.1359C15.4439 20.1359 16.1913 19.9816 16.8806 19.6892L20.9635 23.7721C19.5301 24.6893 17.8279 25.2232 15.9999 25.2232Z" fill="#FAAC3D"/>
</g>
<defs>
<clipPath id="clip0">
<rect width="32" height="32" fill="white"/>
</clipPath>
</defs>
</svg>
