<svg width="92" height="92" viewBox="0 0 92 92" fill="none" xmlns="http://www.w3.org/2000/svg">
<path d="M80.7868 21.883C80.8506 21.8902 80.9142 21.8936 80.9776 21.8936C81.432 21.8936 81.8716 21.7136 82.1968 21.3885L91.4949 12.0906C91.9678 11.6175 92.1247 10.9135 91.8969 10.2842C91.669 9.65492 91.0978 9.21432 90.4315 9.15377L83.4792 8.52181L82.8469 1.56952C82.7865 0.903238 82.3457 0.332012 81.7167 0.104348C81.0874 -0.123496 80.3834 0.0331915 79.9101 0.506309L70.612 9.80442C70.2416 10.1748 70.0594 10.6937 70.1175 11.2144L70.9404 18.6217L69.1993 20.3629C62.7686 14.4804 54.3341 10.756 45.0525 10.3435V7.06904C45.0525 6.11669 44.2804 5.34457 43.328 5.34457C42.3757 5.34457 41.6036 6.11669 41.6036 7.06904V10.3429C21.8155 11.2227 5.8783 27.1599 4.99837 46.9482H1.72446C0.772117 46.9482 0 47.7203 0 48.6726C0 49.625 0.772117 50.3971 1.72446 50.3971H4.99837C5.8783 70.1853 21.8155 86.1224 41.6036 87.0023V90.2762C41.6036 91.2286 42.3757 92.0007 43.328 92.0007C44.2804 92.0007 45.0525 91.2286 45.0525 90.2762V87.0023C64.8406 86.1226 80.7778 70.1853 81.6577 50.3971H84.9316C85.884 50.3971 86.6561 49.625 86.6561 48.6726C86.6561 47.7203 85.884 46.9482 84.9316 46.9482H81.6577C81.2452 37.6666 77.5208 29.2321 71.6385 22.801L73.3797 21.0599L80.7868 21.883ZM79.7457 5.54852L80.1746 10.2653C80.2501 11.0944 80.9066 11.7512 81.7357 11.8266L86.4525 12.2554L80.3439 18.3638L74.3078 17.6932L73.6372 11.6572L79.7457 5.54852ZM78.2065 46.9482H75.7769C74.8246 46.9482 74.0525 47.7203 74.0525 48.6726C74.0525 49.625 74.8246 50.3971 75.7769 50.3971H78.2065C77.3323 68.2835 62.939 82.6769 45.0527 83.5509V81.1215C45.0527 80.1692 44.2806 79.397 43.3282 79.397C42.3759 79.397 41.6038 80.1692 41.6038 81.1215V83.5509C23.7173 82.677 9.32398 68.2834 8.44981 50.3973H10.8794C11.8317 50.3973 12.6038 49.6251 12.6038 48.6728C12.6038 47.7205 11.8317 46.9483 10.8794 46.9483H8.44981C9.32398 29.0622 23.7173 14.6686 41.6036 13.7946V16.2239C41.6036 17.1763 42.3757 17.9484 43.328 17.9484C44.2804 17.9484 45.0525 17.1763 45.0525 16.2239V13.7946C53.3839 14.2017 60.9572 17.5419 66.7597 22.8023L61.5706 27.9913C56.7042 23.6934 50.3159 21.0807 43.3279 21.0807C28.1135 21.0807 15.7358 33.4583 15.7358 48.6728C15.7358 63.8873 28.1135 76.2649 43.3279 76.2649C58.5422 76.2649 70.92 63.8873 70.92 48.6728C70.92 41.6849 68.3073 35.2967 64.0097 30.4298L69.1987 25.2408C74.4593 31.0435 77.7993 38.617 78.2065 46.9482ZM42.1087 49.8922C42.4456 50.2289 42.8867 50.3973 43.328 50.3973C43.7694 50.3973 44.2108 50.2289 44.5474 49.8922L53.9127 40.5269C55.6535 42.7837 56.6928 45.6086 56.6928 48.6728C56.6928 56.0423 50.6974 62.0378 43.3279 62.0378C35.9583 62.0378 29.9629 56.0423 29.9629 48.6728C29.9629 41.3033 35.9583 35.3078 43.3279 35.3078C46.3921 35.3078 49.2168 36.3471 51.4738 38.088L42.1085 47.4533C41.4354 48.1269 41.4354 49.2187 42.1087 49.8922ZM43.3282 31.8591C34.0569 31.8591 26.5143 39.4018 26.5143 48.673C26.5143 57.9441 34.0569 65.4869 43.3282 65.4869C52.5996 65.4869 60.1421 57.9441 60.1421 48.673C60.1421 44.6573 58.7253 40.9673 56.3676 38.0725L61.5681 32.872C65.244 37.1096 67.4714 42.6358 67.4714 48.6728C67.4714 61.9853 56.6409 72.8158 43.3284 72.8158C30.0159 72.8158 19.1854 61.9853 19.1854 48.6728C19.1854 35.3603 30.0159 24.5296 43.3284 24.5296C49.3652 24.5296 54.8918 26.757 59.1294 30.4329L53.9289 35.6336C51.0339 33.2759 47.3441 31.8591 43.3282 31.8591Z" fill="url(#paint0_linear)"/>
<defs>
<linearGradient id="paint0_linear" x1="46" y1="0.00125122" x2="46" y2="92.0007" gradientUnits="userSpaceOnUse">
<stop stop-color="#F7CD47"/>
<stop offset="1" stop-color="#F37500"/>
</linearGradient>
</defs>
</svg>
