<svg width="78" height="92" viewBox="0 0 78 92" fill="none" xmlns="http://www.w3.org/2000/svg">
<path d="M39.0001 50.2772C45.1508 50.2772 59.6118 42.8749 59.6118 25.1383C59.6118 22.6643 59.5516 20.2744 59.3477 18.0163C59.0129 13.5723 58.1028 9.63379 55.8365 6.61544C52.9296 2.50794 47.8438 0 39.0001 0C30.1579 0 25.0724 2.50692 22.1655 6.61315C19.8977 9.63227 18.987 13.5718 18.6525 18.0173C18.4488 20.2752 18.3887 22.6648 18.3887 25.1386C18.3884 42.8749 32.8494 50.2772 39.0001 50.2772ZM45.728 9.20956C45.1278 10.7268 44.827 11.4855 44.2263 13.0024C40.3488 11.9069 37.6509 11.9069 33.7734 13.0024C33.173 11.4855 32.8721 10.7268 32.2715 9.20956C37.1209 7.74156 40.8793 7.74181 45.728 9.20956ZM21.4547 21.2927C21.6923 21.812 22.7012 23.809 24.2627 23.9961C26.0578 24.2116 29.0374 17.639 39.0001 17.6229C48.9625 17.639 51.9424 24.2116 53.7375 23.9961C55.2991 23.8088 56.3079 21.812 56.5455 21.2927C56.5937 22.5654 56.6116 23.8539 56.6116 25.1386C56.6116 33.8082 52.7835 39.1799 49.5719 42.1595C45.5256 45.9142 41.0328 47.2769 39.0004 47.2769C36.9679 47.2769 32.4752 45.9142 28.4289 42.1595C25.217 39.1799 21.3892 33.8082 21.3892 25.1386C21.3889 23.8539 21.4065 22.5654 21.4547 21.2927Z" fill="url(#paint0_linear)"/>
<path d="M77.2661 76.0585C76.2137 69.5155 74.0476 61.0868 69.7022 58.0917C66.7346 56.0454 56.3816 50.5143 51.9605 48.1524L51.8858 48.1127C51.3805 47.8427 50.7633 47.897 50.313 48.2506C47.9971 50.0686 45.4603 51.2939 42.7731 51.8923C42.2984 51.9981 41.9086 52.3354 41.7365 52.79L39.0001 60.0028L36.2635 52.79C36.0914 52.3354 35.7018 51.9981 35.2269 51.8923C32.5399 51.2939 30.0032 50.0686 27.6875 48.2506C27.2362 47.8967 26.6195 47.8427 26.1142 48.1127C21.7459 50.447 11.2661 56.0911 8.31128 58.083C3.3089 61.4527 1.12194 73.6482 0.734161 76.0588C0.695918 76.2979 0.718099 76.5424 0.798663 76.7708C0.904722 77.0701 2.55909 81.3553 10.8327 84.8007C11.3097 84.1996 11.9451 83.7437 12.6597 83.4872C11.772 83.1721 11.0015 82.5544 10.5087 81.7253C9.77444 80.4898 9.74716 78.9394 10.4358 77.6823C12.557 73.7994 16.6193 71.3835 21.0427 71.3776C25.1571 71.3776 28.8868 73.4221 31.1015 76.7451H46.8896C47.323 76.0978 47.8201 75.4923 48.378 74.9326C50.6598 72.6442 53.6954 71.3817 56.9262 71.3771H56.9287H56.9313C61.3511 71.3771 65.4186 73.7798 67.5471 77.6494C68.237 78.9053 68.2138 80.4526 67.4839 81.6921C66.9939 82.5215 66.2255 83.1413 65.3388 83.4592C66.0659 83.7167 66.7112 84.1794 67.1917 84.7911C75.4442 81.3474 77.096 77.0701 77.2021 76.7713C77.2824 76.5421 77.3046 76.2974 77.2661 76.0585Z" fill="url(#paint1_linear)"/>
<path d="M63.9817 86.7937H63.9806L56.3739 86.8041C56.2391 86.4839 55.98 85.5946 55.9775 83.4732C55.9739 81.3515 56.2299 80.4607 56.3645 80.1397L63.9692 80.1285C64.1509 80.1275 64.3187 80.0319 64.4107 79.8756C64.5033 79.7188 64.5058 79.526 64.4186 79.367C62.9183 76.6395 60.0552 74.9456 56.931 74.9456C54.6533 74.9489 52.5137 75.8392 50.9058 77.452C50.0772 78.2827 49.4449 79.2555 49.0235 80.3138H28.9671C27.7079 77.1741 24.635 74.9464 21.0427 74.9464C17.928 74.9507 15.0639 76.6543 13.5681 79.393C13.4809 79.5521 13.4845 79.7456 13.577 79.9013C13.6696 80.0571 13.8373 80.1522 14.0186 80.1522H14.0191L21.6258 80.1402C21.7612 80.4604 22.0197 81.3497 22.0222 83.4719C22.0258 85.5939 21.7698 86.4841 21.6352 86.8046L14.0306 86.8161C13.8493 86.8163 13.6815 86.9127 13.589 87.0685C13.497 87.2248 13.4939 87.4183 13.5816 87.5774C15.0815 90.3046 17.9456 91.9997 21.0562 91.9997H21.0687C23.347 91.9962 25.486 91.1059 27.0945 89.4928C27.923 88.6617 28.5551 87.6885 28.9762 86.6302H49.0321C50.2916 89.771 53.3622 91.9985 56.9455 91.999C56.9455 91.999 56.957 91.999 56.9575 91.999C60.0717 91.9946 62.9364 90.29 64.4322 87.5532C64.5193 87.3938 64.5158 87.2 64.4232 87.0445C64.3307 86.8888 64.1629 86.7937 63.9817 86.7937Z" fill="url(#paint2_linear)"/>
<defs>
<linearGradient id="paint0_linear" x1="39.0002" y1="0" x2="39.0002" y2="50.2772" gradientUnits="userSpaceOnUse">
<stop stop-color="#FAAC3D"/>
<stop offset="1" stop-color="#F7CD47"/>
</linearGradient>
<linearGradient id="paint1_linear" x1="39.0002" y1="47.9421" x2="39.0002" y2="84.8007" gradientUnits="userSpaceOnUse">
<stop stop-color="#FAAC3D"/>
<stop offset="1" stop-color="#F7CD47"/>
</linearGradient>
<linearGradient id="paint2_linear" x1="39.0001" y1="74.9456" x2="39.0001" y2="91.9997" gradientUnits="userSpaceOnUse">
<stop stop-color="#FAAC3D"/>
<stop offset="1" stop-color="#F7CD47"/>
</linearGradient>
</defs>
</svg>
