<svg width="92" height="92" viewBox="0 0 92 92" fill="none" xmlns="http://www.w3.org/2000/svg">
<path d="M38.775 50.5206C38.775 53.1295 36.6602 55.2445 34.0513 55.2445C31.4425 55.2445 29.3277 53.1297 29.3277 50.5206C29.3277 47.9119 31.4425 45.7969 34.0513 45.7969C36.6602 45.7971 38.775 47.912 38.775 50.5206ZM57.9487 45.7971C55.34 45.7971 53.225 47.9119 53.225 50.5209C53.225 53.1297 55.34 55.2445 57.9487 55.2445C60.5575 55.2445 62.6726 53.1297 62.6726 50.5209C62.6724 47.912 60.5576 45.7971 57.9487 45.7971ZM92 47.8877V56.865C92 61.3721 88.3463 65.0258 83.8391 65.0258H77.9171C72.0491 81.3188 57.0647 91.16 46 91.16C34.9353 91.16 19.9509 81.3188 14.0829 65.0257H8.16094C3.65369 65.0257 0 61.3721 0 56.8649V47.8875C0 44.7861 1.73041 42.0889 4.2783 40.7082C4.36384 27.9627 8.07856 18.0086 15.3353 11.127C22.5332 4.3013 32.8503 0.840027 46 0.840027C59.1497 0.840027 69.4668 4.3013 76.6647 11.1269C83.9213 18.0084 87.6359 27.9627 87.7217 40.708C90.2696 42.0889 92 44.7861 92 47.8877ZM74.7273 50.5505C74.7273 48.4506 74.6198 46.4776 74.4611 44.5657C70.8392 41.2521 64.2641 38.7377 55.9659 37.8034C57.0555 39.0286 57.9967 40.6403 58.5675 42.7617C53.4846 38.7574 43.5076 39.7105 35.961 30.7498C35.5284 30.2494 35.1542 29.7712 34.8307 29.3342C34.827 29.3289 34.8228 29.3249 34.819 29.3197L34.8199 29.32C33.4773 27.5044 33.0196 26.4244 32.994 27.6198C32.7726 37.9192 25.4726 45.9484 17.3664 47.0812C17.3151 48.2139 17.2732 49.3576 17.2732 50.5507C17.2732 54.904 17.984 58.8716 19.1927 62.4471C23.7461 67.9396 31.2657 69.4905 37.9213 69.9018C39.1568 67.9361 41.929 66.5638 45.1574 66.5638C49.5345 66.5638 53.0826 69.0824 53.0826 72.1896C53.0826 75.2966 49.5343 77.8152 45.1574 77.8152C41.7906 77.8152 38.9214 76.3224 37.7731 74.2206C33.1215 73.9501 28.008 73.1571 23.4505 71.0049C29.8596 80.4519 39.7953 85.4473 46 85.4473C55.75 85.4473 74.7273 73.1302 74.7273 50.5505ZM82.8083 39.7267C82.2889 17.4857 69.5939 5.73677 46 5.73677C22.4061 5.73677 9.71126 17.4857 9.19173 39.7267H12.3316C13.4797 32.2304 15.9061 26.0653 19.5901 21.3249C25.4609 13.7713 34.3464 9.94111 46 9.94111C57.6536 9.94111 66.5392 13.7713 72.4102 21.3249C76.0939 26.0652 78.5205 32.2304 79.6685 39.7267H82.8083Z" fill="url(#paint0_linear)"/>
<defs>
<linearGradient id="paint0_linear" x1="46" y1="0.840027" x2="46" y2="91.16" gradientUnits="userSpaceOnUse">
<stop stop-color="#F7CD47"/>
<stop offset="1" stop-color="#FAAC3D"/>
</linearGradient>
</defs>
</svg>
