<svg width="92" height="16" viewBox="0 0 92 16" fill="none" xmlns="http://www.w3.org/2000/svg">
<g clip-path="url(#clip0)">
<path d="M34.6498 7.28235C34.9647 6.97542 35.0759 6.52496 34.9401 6.10621C34.8039 5.68747 34.4492 5.38855 34.0135 5.32512L30.1394 4.7622C29.9744 4.73817 29.8318 4.63469 29.7582 4.48507L28.0262 0.974937C27.8317 0.580543 27.437 0.335449 26.9971 0.335449C26.5575 0.335449 26.1628 0.580543 25.9683 0.974937L24.236 4.48539C24.1623 4.63501 24.0194 4.73849 23.8544 4.76252L19.9803 5.32544C19.5449 5.38855 19.19 5.68779 19.0538 6.10653C18.9179 6.52528 19.0291 6.97574 19.3441 7.28267L22.1471 10.0149C22.2666 10.1315 22.3214 10.2994 22.2932 10.4634L21.6319 14.3215C21.5733 14.6611 21.6624 14.9914 21.8821 15.2519C22.2237 15.6578 22.8199 15.7815 23.2966 15.531L26.7613 13.7093C26.9061 13.6333 27.0884 13.634 27.2329 13.7093L30.6978 15.531C30.8664 15.6197 31.0461 15.6646 31.2316 15.6646C31.5702 15.6646 31.8913 15.514 32.112 15.2519C32.3321 14.9914 32.4209 14.6605 32.3622 14.3215L31.7006 10.4634C31.6725 10.2991 31.7272 10.1315 31.8467 10.0149L34.6498 7.28235Z" fill="#FAAC3D"/>
<path d="M34.6498 7.28235C34.9647 6.97542 35.0759 6.52496 34.9401 6.10621C34.8039 5.68747 34.4492 5.38855 34.0135 5.32512L30.1394 4.7622C29.9744 4.73817 29.8318 4.63469 29.7582 4.48507L28.0262 0.974937C27.8317 0.580543 27.437 0.335449 26.9971 0.335449C26.5575 0.335449 26.1628 0.580543 25.9683 0.974937L24.236 4.48539C24.1623 4.63501 24.0194 4.73849 23.8544 4.76252L19.9803 5.32544C19.5449 5.38855 19.19 5.68779 19.0538 6.10653C18.9179 6.52528 19.0291 6.97574 19.3441 7.28267L22.1471 10.0149C22.2666 10.1315 22.3214 10.2994 22.2932 10.4634L21.6319 14.3215C21.5733 14.6611 21.6624 14.9914 21.8821 15.2519C22.2237 15.6578 22.8199 15.7815 23.2966 15.531L26.7613 13.7093C26.9061 13.6333 27.0884 13.634 27.2329 13.7093L30.6978 15.531C30.8664 15.6197 31.0461 15.6646 31.2316 15.6646C31.5702 15.6646 31.8913 15.514 32.112 15.2519C32.3321 14.9914 32.4209 14.6605 32.3622 14.3215L31.7006 10.4634C31.6725 10.2991 31.7272 10.1315 31.8467 10.0149L34.6498 7.28235Z" fill="#FAAC3D"/>
<path d="M34.6498 7.28235C34.9647 6.97542 35.0759 6.52496 34.9401 6.10621C34.8039 5.68747 34.4492 5.38855 34.0135 5.32512L30.1394 4.7622C29.9744 4.73817 29.8318 4.63469 29.7582 4.48507L28.0262 0.974937C27.8317 0.580543 27.437 0.335449 26.9971 0.335449C26.5575 0.335449 26.1628 0.580543 25.9683 0.974937L24.236 4.48539C24.1623 4.63501 24.0194 4.73849 23.8544 4.76252L19.9803 5.32544C19.5449 5.38855 19.19 5.68779 19.0538 6.10653C18.9179 6.52528 19.0291 6.97574 19.3441 7.28267L22.1471 10.0149C22.2666 10.1315 22.3214 10.2994 22.2932 10.4634L21.6319 14.3215C21.5733 14.6611 21.6624 14.9914 21.8821 15.2519C22.2237 15.6578 22.8199 15.7815 23.2966 15.531L26.7613 13.7093C26.9061 13.6333 27.0884 13.634 27.2329 13.7093L30.6978 15.531C30.8664 15.6197 31.0461 15.6646 31.2316 15.6646C31.5702 15.6646 31.8913 15.514 32.112 15.2519C32.3321 14.9914 32.4209 14.6605 32.3622 14.3215L31.7006 10.4634C31.6725 10.2991 31.7272 10.1315 31.8467 10.0149L34.6498 7.28235Z" fill="#FAAC3D"/>
</g>
<g clip-path="url(#clip1)">
<path d="M53.6498 7.28235C53.9647 6.97542 54.0759 6.52496 53.9401 6.10621C53.8039 5.68747 53.4492 5.38855 53.0135 5.32512L49.1394 4.7622C48.9744 4.73817 48.8318 4.63469 48.7582 4.48507L47.0262 0.974937C46.8317 0.580543 46.437 0.335449 45.9971 0.335449C45.5575 0.335449 45.1628 0.580543 44.9683 0.974937L43.236 4.48539C43.1623 4.63501 43.0194 4.73849 42.8544 4.76252L38.9803 5.32544C38.5449 5.38855 38.19 5.68779 38.0538 6.10653C37.9179 6.52528 38.0291 6.97574 38.3441 7.28267L41.1471 10.0149C41.2666 10.1315 41.3214 10.2994 41.2932 10.4634L40.6319 14.3215C40.5733 14.6611 40.6624 14.9914 40.8821 15.2519C41.2237 15.6578 41.8199 15.7815 42.2966 15.531L45.7613 13.7093C45.9061 13.6333 46.0884 13.634 46.2329 13.7093L49.6978 15.531C49.8664 15.6197 50.0461 15.6646 50.2316 15.6646C50.5702 15.6646 50.8913 15.514 51.112 15.2519C51.3321 14.9914 51.4209 14.6605 51.3622 14.3215L50.7006 10.4634C50.6725 10.2991 50.7272 10.1315 50.8467 10.0149L53.6498 7.28235Z" fill="#FAAC3D"/>
<path d="M53.6498 7.28235C53.9647 6.97542 54.0759 6.52496 53.9401 6.10621C53.8039 5.68747 53.4492 5.38855 53.0135 5.32512L49.1394 4.7622C48.9744 4.73817 48.8318 4.63469 48.7582 4.48507L47.0262 0.974937C46.8317 0.580543 46.437 0.335449 45.9971 0.335449C45.5575 0.335449 45.1628 0.580543 44.9683 0.974937L43.236 4.48539C43.1623 4.63501 43.0194 4.73849 42.8544 4.76252L38.9803 5.32544C38.5449 5.38855 38.19 5.68779 38.0538 6.10653C37.9179 6.52528 38.0291 6.97574 38.3441 7.28267L41.1471 10.0149C41.2666 10.1315 41.3214 10.2994 41.2932 10.4634L40.6319 14.3215C40.5733 14.6611 40.6624 14.9914 40.8821 15.2519C41.2237 15.6578 41.8199 15.7815 42.2966 15.531L45.7613 13.7093C45.9061 13.6333 46.0884 13.634 46.2329 13.7093L49.6978 15.531C49.8664 15.6197 50.0461 15.6646 50.2316 15.6646C50.5702 15.6646 50.8913 15.514 51.112 15.2519C51.3321 14.9914 51.4209 14.6605 51.3622 14.3215L50.7006 10.4634C50.6725 10.2991 50.7272 10.1315 50.8467 10.0149L53.6498 7.28235Z" fill="#FAAC3D"/>
<path d="M53.6498 7.28235C53.9647 6.97542 54.0759 6.52496 53.9401 6.10621C53.8039 5.68747 53.4492 5.38855 53.0135 5.32512L49.1394 4.7622C48.9744 4.73817 48.8318 4.63469 48.7582 4.48507L47.0262 0.974937C46.8317 0.580543 46.437 0.335449 45.9971 0.335449C45.5575 0.335449 45.1628 0.580543 44.9683 0.974937L43.236 4.48539C43.1623 4.63501 43.0194 4.73849 42.8544 4.76252L38.9803 5.32544C38.5449 5.38855 38.19 5.68779 38.0538 6.10653C37.9179 6.52528 38.0291 6.97574 38.3441 7.28267L41.1471 10.0149C41.2666 10.1315 41.3214 10.2994 41.2932 10.4634L40.6319 14.3215C40.5733 14.6611 40.6624 14.9914 40.8821 15.2519C41.2237 15.6578 41.8199 15.7815 42.2966 15.531L45.7613 13.7093C45.9061 13.6333 46.0884 13.634 46.2329 13.7093L49.6978 15.531C49.8664 15.6197 50.0461 15.6646 50.2316 15.6646C50.5702 15.6646 50.8913 15.514 51.112 15.2519C51.3321 14.9914 51.4209 14.6605 51.3622 14.3215L50.7006 10.4634C50.6725 10.2991 50.7272 10.1315 50.8467 10.0149L53.6498 7.28235Z" fill="#FAAC3D"/>
</g>
<g clip-path="url(#clip2)">
<path d="M72.6498 7.28235C72.9647 6.97542 73.0759 6.52496 72.9401 6.10621C72.8039 5.68747 72.4492 5.38855 72.0135 5.32512L68.1394 4.7622C67.9744 4.73817 67.8318 4.63469 67.7582 4.48507L66.0262 0.974937C65.8317 0.580543 65.437 0.335449 64.9971 0.335449C64.5575 0.335449 64.1628 0.580543 63.9683 0.974937L62.236 4.48539C62.1623 4.63501 62.0194 4.73849 61.8544 4.76252L57.9803 5.32544C57.5449 5.38855 57.19 5.68779 57.0538 6.10653C56.9179 6.52528 57.0291 6.97574 57.3441 7.28267L60.1471 10.0149C60.2666 10.1315 60.3214 10.2994 60.2932 10.4634L59.6319 14.3215C59.5733 14.6611 59.6624 14.9914 59.8821 15.2519C60.2237 15.6578 60.8199 15.7815 61.2966 15.531L64.7613 13.7093C64.9061 13.6333 65.0884 13.634 65.2329 13.7093L68.6978 15.531C68.8664 15.6197 69.0461 15.6646 69.2316 15.6646C69.5702 15.6646 69.8913 15.514 70.112 15.2519C70.3321 14.9914 70.4209 14.6605 70.3622 14.3215L69.7006 10.4634C69.6725 10.2991 69.7272 10.1315 69.8467 10.0149L72.6498 7.28235Z" fill="#FAAC3D"/>
<path d="M72.6498 7.28235C72.9647 6.97542 73.0759 6.52496 72.9401 6.10621C72.8039 5.68747 72.4492 5.38855 72.0135 5.32512L68.1394 4.7622C67.9744 4.73817 67.8318 4.63469 67.7582 4.48507L66.0262 0.974937C65.8317 0.580543 65.437 0.335449 64.9971 0.335449C64.5575 0.335449 64.1628 0.580543 63.9683 0.974937L62.236 4.48539C62.1623 4.63501 62.0194 4.73849 61.8544 4.76252L57.9803 5.32544C57.5449 5.38855 57.19 5.68779 57.0538 6.10653C56.9179 6.52528 57.0291 6.97574 57.3441 7.28267L60.1471 10.0149C60.2666 10.1315 60.3214 10.2994 60.2932 10.4634L59.6319 14.3215C59.5733 14.6611 59.6624 14.9914 59.8821 15.2519C60.2237 15.6578 60.8199 15.7815 61.2966 15.531L64.7613 13.7093C64.9061 13.6333 65.0884 13.634 65.2329 13.7093L68.6978 15.531C68.8664 15.6197 69.0461 15.6646 69.2316 15.6646C69.5702 15.6646 69.8913 15.514 70.112 15.2519C70.3321 14.9914 70.4209 14.6605 70.3622 14.3215L69.7006 10.4634C69.6725 10.2991 69.7272 10.1315 69.8467 10.0149L72.6498 7.28235Z" fill="#FAAC3D"/>
<path d="M72.6498 7.28235C72.9647 6.97542 73.0759 6.52496 72.9401 6.10621C72.8039 5.68747 72.4492 5.38855 72.0135 5.32512L68.1394 4.7622C67.9744 4.73817 67.8318 4.63469 67.7582 4.48507L66.0262 0.974937C65.8317 0.580543 65.437 0.335449 64.9971 0.335449C64.5575 0.335449 64.1628 0.580543 63.9683 0.974937L62.236 4.48539C62.1623 4.63501 62.0194 4.73849 61.8544 4.76252L57.9803 5.32544C57.5449 5.38855 57.19 5.68779 57.0538 6.10653C56.9179 6.52528 57.0291 6.97574 57.3441 7.28267L60.1471 10.0149C60.2666 10.1315 60.3214 10.2994 60.2932 10.4634L59.6319 14.3215C59.5733 14.6611 59.6624 14.9914 59.8821 15.2519C60.2237 15.6578 60.8199 15.7815 61.2966 15.531L64.7613 13.7093C64.9061 13.6333 65.0884 13.634 65.2329 13.7093L68.6978 15.531C68.8664 15.6197 69.0461 15.6646 69.2316 15.6646C69.5702 15.6646 69.8913 15.514 70.112 15.2519C70.3321 14.9914 70.4209 14.6605 70.3622 14.3215L69.7006 10.4634C69.6725 10.2991 69.7272 10.1315 69.8467 10.0149L72.6498 7.28235Z" fill="#FAAC3D"/>
</g>
<g clip-path="url(#clip3)">
<path d="M91.6498 7.28235C91.9647 6.97542 92.0759 6.52496 91.9401 6.10621C91.8039 5.68747 91.4492 5.38855 91.0135 5.32512L87.1394 4.7622C86.9744 4.73817 86.8318 4.63469 86.7582 4.48507L85.0262 0.974937C84.8317 0.580543 84.437 0.335449 83.9971 0.335449C83.5575 0.335449 83.1628 0.580543 82.9683 0.974937L81.236 4.48539C81.1623 4.63501 81.0194 4.73849 80.8544 4.76252L76.9803 5.32544C76.5449 5.38855 76.19 5.68779 76.0538 6.10653C75.9179 6.52528 76.0291 6.97574 76.3441 7.28267L79.1471 10.0149C79.2666 10.1315 79.3214 10.2994 79.2932 10.4634L78.6319 14.3215C78.5733 14.6611 78.6624 14.9914 78.8821 15.2519C79.2237 15.6578 79.8199 15.7815 80.2966 15.531L83.7613 13.7093C83.9061 13.6333 84.0884 13.634 84.2329 13.7093L87.6978 15.531C87.8664 15.6197 88.0461 15.6646 88.2316 15.6646C88.5702 15.6646 88.8913 15.514 89.112 15.2519C89.3321 14.9914 89.4209 14.6605 89.3622 14.3215L88.7006 10.4634C88.6725 10.2991 88.7272 10.1315 88.8467 10.0149L91.6498 7.28235Z" fill="#FAAC3D"/>
<path d="M91.6498 7.28235C91.9647 6.97542 92.0759 6.52496 91.9401 6.10621C91.8039 5.68747 91.4492 5.38855 91.0135 5.32512L87.1394 4.7622C86.9744 4.73817 86.8318 4.63469 86.7582 4.48507L85.0262 0.974937C84.8317 0.580543 84.437 0.335449 83.9971 0.335449C83.5575 0.335449 83.1628 0.580543 82.9683 0.974937L81.236 4.48539C81.1623 4.63501 81.0194 4.73849 80.8544 4.76252L76.9803 5.32544C76.5449 5.38855 76.19 5.68779 76.0538 6.10653C75.9179 6.52528 76.0291 6.97574 76.3441 7.28267L79.1471 10.0149C79.2666 10.1315 79.3214 10.2994 79.2932 10.4634L78.6319 14.3215C78.5733 14.6611 78.6624 14.9914 78.8821 15.2519C79.2237 15.6578 79.8199 15.7815 80.2966 15.531L83.7613 13.7093C83.9061 13.6333 84.0884 13.634 84.2329 13.7093L87.6978 15.531C87.8664 15.6197 88.0461 15.6646 88.2316 15.6646C88.5702 15.6646 88.8913 15.514 89.112 15.2519C89.3321 14.9914 89.4209 14.6605 89.3622 14.3215L88.7006 10.4634C88.6725 10.2991 88.7272 10.1315 88.8467 10.0149L91.6498 7.28235Z" fill="#FAAC3D"/>
<path d="M91.6498 7.28235C91.9647 6.97542 92.0759 6.52496 91.9401 6.10621C91.8039 5.68747 91.4492 5.38855 91.0135 5.32512L87.1394 4.7622C86.9744 4.73817 86.8318 4.63469 86.7582 4.48507L85.0262 0.974937C84.8317 0.580543 84.437 0.335449 83.9971 0.335449C83.5575 0.335449 83.1628 0.580543 82.9683 0.974937L81.236 4.48539C81.1623 4.63501 81.0194 4.73849 80.8544 4.76252L76.9803 5.32544C76.5449 5.38855 76.19 5.68779 76.0538 6.10653C75.9179 6.52528 76.0291 6.97574 76.3441 7.28267L79.1471 10.0149C79.2666 10.1315 79.3214 10.2994 79.2932 10.4634L78.6319 14.3215C78.5733 14.6611 78.6624 14.9914 78.8821 15.2519C79.2237 15.6578 79.8199 15.7815 80.2966 15.531L83.7613 13.7093C83.9061 13.6333 84.0884 13.634 84.2329 13.7093L87.6978 15.531C87.8664 15.6197 88.0461 15.6646 88.2316 15.6646C88.5702 15.6646 88.8913 15.514 89.112 15.2519C89.3321 14.9914 89.4209 14.6605 89.3622 14.3215L88.7006 10.4634C88.6725 10.2991 88.7272 10.1315 88.8467 10.0149L91.6498 7.28235Z" fill="#FAAC3D"/>
</g>
<g clip-path="url(#clip4)">
<path d="M15.6498 7.28235C15.9647 6.97542 16.0759 6.52496 15.9401 6.10621C15.8039 5.68747 15.4492 5.38855 15.0135 5.32512L11.1394 4.7622C10.9744 4.73817 10.8318 4.63469 10.7582 4.48507L9.02615 0.974937C8.83168 0.580543 8.43697 0.335449 7.99708 0.335449C7.55751 0.335449 7.1628 0.580543 6.96833 0.974937L5.23601 4.48539C5.16232 4.63501 5.01943 4.73849 4.85443 4.76252L0.98034 5.32544C0.544938 5.38855 0.189952 5.68779 0.0537881 6.10653C-0.0820549 6.52528 0.0291185 6.97574 0.344056 7.28267L3.1471 10.0149C3.2666 10.1315 3.32139 10.2994 3.2932 10.4634L2.63192 14.3215C2.57329 14.6611 2.66236 14.9914 2.88214 15.2519C3.22367 15.6578 3.81991 15.7815 4.29664 15.531L7.76128 13.7093C7.90609 13.6333 8.08839 13.634 8.23288 13.7093L11.6978 15.531C11.8664 15.6197 12.0461 15.6646 12.2316 15.6646C12.5702 15.6646 12.8913 15.514 13.112 15.2519C13.3321 14.9914 13.4209 14.6605 13.3622 14.3215L12.7006 10.4634C12.6725 10.2991 12.7272 10.1315 12.8467 10.0149L15.6498 7.28235Z" fill="#FAAC3D"/>
<path d="M15.6498 7.28235C15.9647 6.97542 16.0759 6.52496 15.9401 6.10621C15.8039 5.68747 15.4492 5.38855 15.0135 5.32512L11.1394 4.7622C10.9744 4.73817 10.8318 4.63469 10.7582 4.48507L9.02615 0.974937C8.83168 0.580543 8.43697 0.335449 7.99708 0.335449C7.55751 0.335449 7.1628 0.580543 6.96833 0.974937L5.23601 4.48539C5.16232 4.63501 5.01943 4.73849 4.85443 4.76252L0.98034 5.32544C0.544938 5.38855 0.189952 5.68779 0.0537881 6.10653C-0.0820549 6.52528 0.0291185 6.97574 0.344056 7.28267L3.1471 10.0149C3.2666 10.1315 3.32139 10.2994 3.2932 10.4634L2.63192 14.3215C2.57329 14.6611 2.66236 14.9914 2.88214 15.2519C3.22367 15.6578 3.81991 15.7815 4.29664 15.531L7.76128 13.7093C7.90609 13.6333 8.08839 13.634 8.23288 13.7093L11.6978 15.531C11.8664 15.6197 12.0461 15.6646 12.2316 15.6646C12.5702 15.6646 12.8913 15.514 13.112 15.2519C13.3321 14.9914 13.4209 14.6605 13.3622 14.3215L12.7006 10.4634C12.6725 10.2991 12.7272 10.1315 12.8467 10.0149L15.6498 7.28235Z" fill="#FAAC3D"/>
<path d="M15.6498 7.28235C15.9647 6.97542 16.0759 6.52496 15.9401 6.10621C15.8039 5.68747 15.4492 5.38855 15.0135 5.32512L11.1394 4.7622C10.9744 4.73817 10.8318 4.63469 10.7582 4.48507L9.02615 0.974937C8.83168 0.580543 8.43697 0.335449 7.99708 0.335449C7.55751 0.335449 7.1628 0.580543 6.96833 0.974937L5.23601 4.48539C5.16232 4.63501 5.01943 4.73849 4.85443 4.76252L0.98034 5.32544C0.544938 5.38855 0.189952 5.68779 0.0537881 6.10653C-0.0820549 6.52528 0.0291185 6.97574 0.344056 7.28267L3.1471 10.0149C3.2666 10.1315 3.32139 10.2994 3.2932 10.4634L2.63192 14.3215C2.57329 14.6611 2.66236 14.9914 2.88214 15.2519C3.22367 15.6578 3.81991 15.7815 4.29664 15.531L7.76128 13.7093C7.90609 13.6333 8.08839 13.634 8.23288 13.7093L11.6978 15.531C11.8664 15.6197 12.0461 15.6646 12.2316 15.6646C12.5702 15.6646 12.8913 15.514 13.112 15.2519C13.3321 14.9914 13.4209 14.6605 13.3622 14.3215L12.7006 10.4634C12.6725 10.2991 12.7272 10.1315 12.8467 10.0149L15.6498 7.28235Z" fill="#FAAC3D"/>
</g>
<defs>
<clipPath id="clip0">
<rect width="16" height="16" fill="white" transform="translate(19)"/>
</clipPath>
<clipPath id="clip1">
<rect width="16" height="16" fill="white" transform="translate(38)"/>
</clipPath>
<clipPath id="clip2">
<rect width="16" height="16" fill="white" transform="translate(57)"/>
</clipPath>
<clipPath id="clip3">
<rect width="16" height="16" fill="white" transform="translate(76)"/>
</clipPath>
<clipPath id="clip4">
<rect width="16" height="16" fill="white"/>
</clipPath>
</defs>
</svg>
